# xmcd
#
# Track frame offsets: 
#        150
#        11064
#        35503
#        51801
#        70648
#        81863
#        106312
#        119905
#        136141
#        149510
#        164803
#        177295
#        200335
#        213803
#        225138
#        242337
#        260457
#        274490
#        287068
#        307545
#        319584
#
# Disc length: 4446 seconds
#
# Revision: 1
# Processed by: cddbd v1.5.2PL0 Copyright (c) Steve Scherf et al.
# Submitted via: ExactAudioCopy v0.99pb4
#
DISCID=28115c15
DTITLE=Romantic Collection - Jazz
DYEAR=2003
DGENRE=Retro
TTITLE0=Ella Fitzgerald/Summertime
TTITLE1=Stan Getz/The Girl From Ipanema (& Joao Gilberto, Astrud Gilbe
TTITLE1=rto featuring A.C.Jobim)
TTITLE2=Nina Simone/My Baby Just Cares for Me
TTITLE3=Sarah Vaughan/And I Love Him
TTITLE4=Dinah Washington/Cry Me A River
TTITLE5=Dave Brubeck Quartet/Take Five
TTITLE6=Marilyn Monroe/I Wanna Be Loved by You
TTITLE7=Gerry Mulligan/The Shadow Of Your Smile
TTITLE8=Louis Armstrong/Moon River
TTITLE9=Peggy Lee/Fever
TTITLE10=Antonio Carlos Jobim/Corcovado (& Frank Sinatra)
TTITLE11=Michael Franks/Antonio's Song (The Rainbow)
TTITLE12=Ella Fitzgerald/Why Don't You Do Right? (& Joe Pass)
TTITLE13=Peter Schilperoort Quintet/Petite Fleur
TTITLE14=Nat King Cole/These Foolish Things
TTITLE15=George Benson/Oh! Darling
TTITLE16=Helen Merrill/Anything Goes
TTITLE17=Blossom Dearie/Lover Man
TTITLE18=Lou Rawls/Oh, What a Beautiful Morning
TTITLE19=Anita O'Day/Tenderly
TTITLE20=Toots Thielemans/Summertime
EXTD=
EXTT0=
EXTT1=
EXTT2=
EXTT3=
EXTT4=
EXTT5=
EXTT6=
EXTT7=
EXTT8=
EXTT9=
EXTT10=
EXTT11=
EXTT12=
EXTT13=
EXTT14=
EXTT15=
EXTT16=
EXTT17=
EXTT18=
EXTT19=
EXTT20=
PLAYORDER=
